<?xml version="1.0" encoding="utf-8"?>
<!-- Generator: Adobe Illustrator 24.0.1, SVG Export Plug-In . SVG Version: 6.00 Build 0)  -->
<svg version="1.1" id="Livello_1" xmlns="http://www.w3.org/2000/svg" xmlns:xlink="http://www.w3.org/1999/xlink" x="0px" y="0px"
	 viewBox="0 0 342.5 155.3" style="enable-background:new 0 0 342.5 155.3;" xml:space="preserve">
<style type="text/css">
	.st0{fill:#868686;}
	.st1{fill:#009EE2;}
	.st2{fill:#005066;}
	.st3{fill:#B6E1F4;}
	.st4{opacity:0.49;fill:none;stroke:#045066;stroke-width:2;stroke-linecap:round;stroke-miterlimit:10;enable-background:new    ;}
	.st5{fill:none;stroke:#B6E1F4;stroke-width:3;stroke-linecap:round;stroke-miterlimit:10;}
	.st6{fill:#444444;}
</style>
<g>
	<g>
		<g>
			<g>
				<g>
					<path class="st0" d="M256.2,34.1c-1.3,0.1-2.3,0.6-3.2,1.5c-0.9,0.8-1.3,1.9-1.5,3.2c-0.1,1.3,0,2.1,0.8,3
						c0.5,0.8,1.6,1.1,2.9,1.1s2.3-0.4,3-1.3c0.6-0.9,1.1-2,1.3-3.3c0.1-1.4,0-2.4-0.6-3.3C258.5,34.2,257.5,33.9,256.2,34.1z
						 M257.1,40.7c-0.5,0.6-1,0.9-1.9,0.9s-1.4-0.3-1.8-0.8c-0.4-0.6-0.5-1.3-0.4-2.3s0.4-1.6,0.9-2.3s1.1-0.9,2-1
						c0.9-0.1,1.4,0.1,1.6,0.8c0.4,0.6,0.4,1.4,0.3,2.4C257.7,39.4,257.5,40.1,257.1,40.7z"/>
				</g>
				<g>
					<path class="st0" d="M260.9,35.1c0.8,0,1.4-0.1,2.1-0.1c-0.3,2.5-0.5,5.2-0.5,7.7c0.5,0,1,0,1.4,0c0-3,0.3-6.1,0.6-9.1
						c-1.1,0.1-2.3,0.1-3.4,0.3C261,34.2,261,34.7,260.9,35.1z"/>
				</g>
				<g>
					<path class="st0" d="M273,7.5c-0.9,0.3-1.6,0.9-2.5,2c-0.9,1-1.5,2.3-2.1,3.7s-0.8,2.4-0.5,3.2c0.1,0.8,0.9,1,2,0.8
						c1-0.3,2-0.8,2.8-1.8c0.8-0.9,1.3-2.1,1.6-3.7s0.5-2.5,0.4-3.4C274.4,7.3,273.9,7.1,273,7.5z M271.8,14.5
						c-0.5,0.8-1,1.1-1.8,1.3c-0.6,0.1-1,0-1.1-0.6s0.1-1.4,0.5-2.4s0.9-1.9,1.4-2.6c0.5-0.8,1-1.1,1.6-1.4c0.6-0.1,0.9,0,1,0.6
						s-0.1,1.4-0.4,2.5C272.7,12.9,272.4,13.8,271.8,14.5z"/>
				</g>
				<g>
					<path class="st0" d="M264.2,21.5c-1.1,0.3-2.1,0.9-3,1.9c-0.9,0.9-1.5,2-2,3.4c-0.4,1.4-0.4,2.3,0,3.2c0.4,0.8,1.4,1,2.5,0.9
						c1.3-0.1,2.3-0.6,3-1.6c0.9-1,1.3-2.3,1.6-3.5c0.3-1.5,0.3-2.5-0.1-3.3C266,21.3,265.3,21.2,264.2,21.5z M263.9,28.3
						c-0.5,0.8-1.1,1-1.9,1.1s-1.3-0.1-1.5-0.6c-0.3-0.6-0.1-1.3,0.1-2.3c0.3-1,0.6-1.8,1.3-2.5c0.6-0.8,1.1-1.1,1.9-1.3
						c0.8-0.1,1.1,0,1.4,0.6s0.1,1.4-0.1,2.4C264.8,26.8,264.5,27.5,263.9,28.3z"/>
				</g>
				<g>
					<path class="st0" d="M268.3,22.2c0.6-0.1,1.1-0.1,1.8-0.3c-0.5,2.6-1,5.3-1.4,7.9c0.5,0,1-0.1,1.5-0.1c0.4-3.2,0.9-6.3,1.5-9.5
						c-1,0.1-2,0.3-3,0.5C268.4,21.2,268.4,21.7,268.3,22.2z"/>
				</g>
				<g>
					<path class="st0" d="M266.2,34.7c0.6,0,1.3-0.1,1.9-0.1c-0.3,2.6-0.4,5.3-0.4,7.9c0.5,0,1,0,1.5,0c0-3.2,0.3-6.3,0.5-9.5
						c-1.1,0-2.3,0.1-3.4,0.3C266.3,33.8,266.3,34.3,266.2,34.7z"/>
				</g>
				<g>
					<path class="st0" d="M263.4,18.4c0.4-0.1,0.9-0.3,1.3-0.4c1.1-2.9,2.5-5.9,4-8.8c-0.8,0.4-1.5,0.8-2.4,1.1
						c-0.3,0.4-0.5,0.9-0.8,1.3c0.5-0.3,0.9-0.4,1.4-0.6C265.7,13.5,264.4,16,263.4,18.4z"/>
				</g>
				<g>
					<path class="st0" d="M255.7,20.3c-0.1,0.6,0.6,0.5,1.8,0.1c1-0.4,2-1,3-2c1-0.9,1.8-2.1,2.5-3.4c0.8-1.4,1.1-2.3,1.3-2.8
						c0.1-0.6-0.4-0.5-1.1,0c-0.9,0.5-1.8,1.3-2.9,2.4c-1,1-2.1,2.1-3,3.3C256.1,19.1,255.7,19.8,255.7,20.3z M260.3,14.9
						c0.8-0.8,1.3-1.3,1.9-1.5c0.6-0.4,0.8-0.4,0.8,0.1c-0.1,0.4-0.5,1.1-1,2c-0.6,1-1.1,1.8-1.8,2.4c-0.6,0.8-1.3,1.1-1.9,1.4
						s-1,0.3-1-0.3c0-0.4,0.4-1,1-1.9C258.9,16.4,259.5,15.7,260.3,14.9z"/>
				</g>
				<g>
					<path class="st0" d="M249.8,30.7c-0.6,0.6-1.3,1-2,1.1c-0.8,0.1-1.3,0.1-1.4-0.4c-0.1-0.4,0-1,0.5-1.9s0.9-1.5,1.6-2.1
						c0.7-0.6,1.4-1,2-1.3c0.8-0.3,1.1-0.1,1.3,0.3c0.1,0.5-0.1,1.1-0.5,2C250.8,29.3,250.4,30,249.8,30.7z"/>
				</g>
				<g>
					<path class="st0" d="M251.2,23.1c0.4-0.3,0.9-0.4,1.3-0.6c1.8-2.4,3.9-4.9,6.3-7.3c-0.8,0.6-1.5,1.1-2.4,1.8
						c-0.4,0.4-0.8,0.6-1.1,1c0.5-0.4,0.9-0.6,1.4-1C254.6,19.1,252.7,21.1,251.2,23.1z"/>
				</g>
				<g>
					<path class="st0" d="M254.3,31.4c0.5-0.1,1-0.1,1.5-0.3c0.8-2.8,1.6-5.5,2.9-8.3c-1,0.3-2,0.6-3,0.9c-0.3,0.4-0.4,0.8-0.5,1.1
						c0.6-0.1,1.1-0.4,1.8-0.5C255.8,26.8,255.1,29.1,254.3,31.4z"/>
				</g>
				<g>
					<path class="st0" d="M281,7.1c-0.3-1-0.9-1.3-1.8-1.1s-1.6,0.6-2.3,1.8c-0.6,0.9-1.3,2.1-1.6,3.7c-0.4,1.5-0.4,2.5,0,3.5
						c0.3,0.9,1.1,1.3,2.1,1.1c1-0.1,1.9-0.5,2.5-1.5c0.6-0.9,1.1-2.1,1.1-3.7C281.6,9.1,281.4,8,281,7.1z M279.4,13.4
						c-0.4,0.8-0.9,1-1.6,1.1c-0.6,0-1.1-0.1-1.3-0.8c-0.3-0.6-0.1-1.5,0.1-2.5c0.3-1.1,0.6-2,1-2.6c0.5-0.8,0.9-1.1,1.5-1.1
						c0.6-0.1,0.9,0.1,1.1,0.9c0.1,0.6,0.1,1.5,0,2.6C280,11.9,279.8,12.8,279.4,13.4z"/>
				</g>
				<g>
					<path class="st0" d="M281.4,21.1c0.6,0,1.1,0,1.8,0c-0.1,2.8-0.3,5.5-0.3,8.3c0.5,0,1,0,1.5,0c0-3.3,0.1-6.4,0.3-9.7
						c-1,0-2,0-3,0C281.6,20.1,281.6,20.6,281.4,21.1z"/>
				</g>
				<g>
					<path class="st0" d="M280.9,34.2c0.6,0,1.3,0,1.9,0c0,2.8-0.1,5.5-0.1,8.3c0.5,0,1,0,1.5,0c0-3.3,0-6.4,0.1-9.7
						c-1.1,0-2.3,0-3.4,0C280.9,33.3,280.9,33.8,280.9,34.2z"/>
				</g>
				<g>
					<path class="st0" d="M282.8,5.8c0,0.5-0.1,0.9-0.1,1.4c0.5,0,0.9,0,1.4,0c-0.3,2.8-0.4,5.5-0.5,8.3c0.4,0,0.9,0,1.3,0
						c0.1-3.3,0.3-6.4,0.4-9.7C284.3,5.8,283.6,5.8,282.8,5.8z"/>
				</g>
				<g>
					<path class="st0" d="M278.7,33.9c-0.5-1-1.6-1.4-2.8-1.4c-1.3,0-2.3,0.5-3,1.5c-0.8,0.9-1.1,2.1-1.1,3.7
						c-0.1,1.5,0.1,2.6,0.9,3.5c0.5,1,1.6,1.4,2.9,1.4s2.3-0.4,3-1.4c0.8-1,1.1-2.3,1-3.7S279.3,34.9,278.7,33.9z M277.4,40.4
						c-0.4,0.8-1,1-1.9,1s-1.4-0.3-1.8-1c-0.4-0.6-0.5-1.5-0.5-2.6s0.3-1.9,0.6-2.6c0.5-0.8,1-1,1.9-1s1.4,0.3,1.8,0.9
						c0.4,0.6,0.5,1.5,0.5,2.6C278,38.7,277.8,39.6,277.4,40.4z"/>
				</g>
				<g>
					<path class="st0" d="M279.5,20.8c-0.4-1-1.4-1.4-2.4-1.3c-1.1,0.1-2,0.6-2.8,1.6c-0.8,0.9-1.3,2.1-1.4,3.7
						c-0.3,1.5-0.1,2.6,0.5,3.5c0.4,0.9,1.5,1.3,2.6,1.3c1.3,0,2.1-0.5,2.9-1.5s1.1-2.3,1.1-3.7C280.2,22.8,280,21.7,279.5,20.8z
						 M278,27c-0.5,0.8-1,1-1.8,1s-1.3-0.3-1.6-0.9c-0.3-0.6-0.4-1.5-0.3-2.6c0.1-1,0.5-2,0.9-2.5c0.5-0.8,1-1,1.8-1.1
						c0.8,0,1.3,0.3,1.5,0.8c0.3,0.6,0.4,1.5,0.3,2.6C278.7,25.5,278.4,26.2,278,27z"/>
				</g>
			</g>
			<g>
				<g>
					<path class="st0" d="M300.5,33.2c-1.3-0.1-2.1,0.3-2.8,1.1c-0.6,0.8-0.9,2-0.9,3.5s0.4,2.6,1,3.5c0.6,1,1.6,1.4,2.9,1.4
						s2.3-0.4,2.9-1.3c0.5-0.9,0.9-2,0.9-3.3c-0.1-1.4-0.4-2.5-1.1-3.4C302.9,33.8,301.7,33.3,300.5,33.2z M302.6,40.5
						c-0.4,0.6-1,0.9-1.8,0.9c-0.9,0-1.4-0.3-1.9-1c-0.4-0.6-0.6-1.5-0.6-2.5c0-1.1,0.1-1.9,0.5-2.5s0.9-0.9,1.8-0.9
						c0.8,0,1.4,0.4,1.9,1s0.6,1.5,0.8,2.5C303.1,39.1,303,39.9,302.6,40.5z"/>
				</g>
				<g>
					<path class="st0" d="M305.5,35.1c0.6,0,1.4,0.1,2,0.1c0.3,2.5,0.4,4.9,0.4,7.4c0.5,0,0.9,0,1.4,0c0-2.9-0.3-5.7-0.6-8.6
						c-1.1-0.1-2.3-0.3-3.4-0.4C305.5,34.3,305.5,34.7,305.5,35.1z"/>
				</g>
				<g>
					<path class="st0" d="M303.4,10.9c-0.9-0.5-1.3-0.5-1.5,0.3c-0.1,0.5,0,1.6,0.5,3s1,2.5,1.9,3.5c0.8,1,1.8,1.6,2.8,2
						s1.6,0.3,1.9-0.4c0.3-0.5,0-1.4-0.6-2.6s-1.4-2.3-2.3-3.4C305.2,12.2,304.1,11.4,303.4,10.9z M307.6,18.1
						c-0.1,0.5-0.4,0.5-1.1,0.3c-0.6-0.3-1.3-0.6-1.8-1.4s-0.9-1.5-1.3-2.5s-0.5-1.6-0.5-2.1s0.3-0.5,0.9-0.3
						c0.6,0.3,1.1,0.8,1.6,1.5c0.6,0.8,1,1.5,1.5,2.4C307.5,17,307.8,17.7,307.6,18.1z"/>
				</g>
				<g>
					<path class="st0" d="M303.5,21.6c-1.1-0.3-1.9,0-2.3,0.8c-0.5,0.6-0.5,1.8-0.4,3.3c0.3,1.5,0.6,2.5,1.4,3.5
						c0.6,1,1.8,1.5,2.9,1.6s2-0.1,2.5-0.9s0.5-1.8,0.3-3c-0.3-1.4-0.9-2.4-1.6-3.4S304.6,21.8,303.5,21.6z M306.5,28.9
						c-0.3,0.6-0.8,0.8-1.5,0.6c-0.8-0.1-1.4-0.4-1.9-1.1c-0.5-0.8-0.8-1.5-0.9-2.5s-0.1-1.8,0.1-2.4s0.6-0.8,1.4-0.6
						c0.8,0.1,1.3,0.5,1.8,1.3s0.9,1.5,1,2.5C306.8,27.6,306.9,28.3,306.5,28.9z"/>
				</g>
				<g>
					<path class="st0" d="M308.4,24.2c0.6,0.1,1.1,0.3,1.8,0.5c0.8,2.3,1.4,4.7,1.8,6.9c0.5,0.1,1,0.1,1.5,0.3
						c-0.6-2.6-1.4-5.3-2.4-8.1c-1-0.3-2-0.6-3-0.9C308.1,23.3,308.3,23.7,308.4,24.2z"/>
				</g>
				<g>
					<path class="st0" d="M310.7,35.6c0.6,0,1.3,0.1,1.9,0.3c0.3,2.3,0.5,4.7,0.5,6.9c0.5,0,1,0,1.5,0c0-2.6-0.3-5.3-0.8-8.1
						c-1.1-0.1-2.3-0.3-3.4-0.4C310.7,34.8,310.7,35.2,310.7,35.6z"/>
				</g>
				<g>
					<path class="st0" d="M300.7,17.7c0.4,0.1,0.9,0.3,1.3,0.4c-0.8-2.9-1.6-5.9-2.6-8.8c-0.8-0.4-1.5-0.6-2.4-0.9
						c0.1,0.4,0.3,0.9,0.4,1.3c0.5,0.1,0.9,0.4,1.4,0.5C299.5,12.5,300.1,15,300.7,17.7z"/>
				</g>
				<g>
					<path class="st0" d="M292.3,14.9c0.5,1,1.5,1.5,2.5,1.8c1,0.1,1.8-0.1,2.1-0.9c0.4-0.6,0.4-1.9,0.1-3.3
						c-0.4-1.5-0.8-2.6-1.5-3.7c-0.6-1-1.4-1.6-2.3-1.9s-1.4,0-1.8,0.9c-0.4,0.8-0.6,1.9-0.4,3.5C291.4,12.6,291.6,13.8,292.3,14.9z
						 M292.5,8.9c0.3-0.6,0.5-0.8,1.1-0.6c0.6,0.1,1,0.5,1.4,1.3s0.8,1.6,0.9,2.6c0.3,1.1,0.3,1.9,0,2.5s-0.6,0.8-1.3,0.6
						c-0.6-0.1-1.1-0.5-1.5-1.1c-0.4-0.8-0.6-1.6-0.8-2.6C292.3,10.2,292.3,9.4,292.5,8.9z"/>
				</g>
				<g>
					<path class="st0" d="M291.1,32.7c-1.3,0-2.1,0.4-2.9,1.3c-0.6,0.9-1,2.1-1,3.7c0,1.5,0.3,2.6,1,3.7c0.5,1,1.6,1.4,2.9,1.4
						s2.3-0.4,2.9-1.4s1-2.1,0.9-3.5c0-1.5-0.4-2.6-1-3.7C293.4,33.2,292.4,32.7,291.1,32.7z M293,40.4c-0.4,0.6-1,1-1.8,1
						c-0.9,0-1.4-0.3-1.8-1s-0.5-1.5-0.6-2.6c0-1.1,0.1-2,0.5-2.6s1-1,1.8-0.9c0.9,0,1.4,0.4,1.8,1c0.4,0.8,0.6,1.5,0.6,2.6
						C293.7,38.9,293.5,39.6,293,40.4z"/>
				</g>
				<g>
					<path class="st0" d="M290.6,19.6c-1.1-0.1-1.9,0.3-2.5,1.3c-0.6,0.8-0.9,2-0.9,3.7c0,1.5,0.3,2.6,0.9,3.7
						c0.5,1,1.6,1.4,2.8,1.5c1.3,0,2.1-0.3,2.8-1.3c0.6-0.9,0.8-2.1,0.6-3.5c-0.1-1.5-0.5-2.6-1.1-3.7
						C292.8,20.2,291.8,19.7,290.6,19.6z M292.6,27.4c-0.4,0.6-0.9,0.9-1.6,0.9c-0.8,0-1.4-0.4-1.8-1c-0.4-0.8-0.5-1.5-0.6-2.6
						c0-1.1,0.1-1.9,0.5-2.6c0.4-0.6,0.9-0.9,1.6-0.9s1.3,0.4,1.6,1.1c0.4,0.8,0.6,1.5,0.6,2.6C293.1,25.9,293,26.8,292.6,27.4z"/>
				</g>
				<g>
					<path class="st0" d="M288.5,15.7c0.4,0,0.9,0.1,1.3,0.1c-0.1-3.2-0.4-6.4-0.5-9.6c-0.8-0.1-1.5-0.3-2.4-0.3c0,0.5,0,0.9,0,1.4
						c0.5,0,0.9,0.1,1.4,0.1C288.4,10.2,288.5,13,288.5,15.7z"/>
				</g>
				<g>
					<path class="st0" d="M297.8,29.8c0.5,0,1,0.1,1.5,0.1c-0.3-3-0.6-6.2-1.1-9.2c-1-0.1-2-0.4-3-0.5c0,0.5,0.1,0.9,0.1,1.4
						c0.6,0.1,1.1,0.1,1.8,0.3C297.3,24.5,297.7,27.1,297.8,29.8z"/>
				</g>
				<g>
					<path class="st0" d="M312.6,17.6c-1-1-2-1.9-2.8-2.5c-0.9-0.6-1.3-0.8-1.3-0.3c0,0.4,0.4,1.3,1,2.5c0.6,1.3,1.4,2.3,2.3,3.3
						s1.9,1.6,2.9,2.1s1.6,0.5,1.8,0.1c0.1-0.3-0.1-1-1.1-2.1C314.5,19.6,313.6,18.7,312.6,17.6z M315.1,21.6c0,0.4-0.3,0.4-1,0
						c-0.6-0.4-1.3-0.8-1.9-1.5c-0.6-0.8-1.1-1.4-1.6-2.3s-0.8-1.4-0.9-1.9c-0.1-0.4,0.1-0.3,0.8,0.1c0.6,0.4,1.1,0.9,1.9,1.6
						c0.8,0.8,1.3,1.4,1.9,2.1C314.8,20.7,315.1,21.3,315.1,21.6z"/>
				</g>
				<g>
					<path class="st0" d="M313.3,18.1c0.3,0.4,0.6,0.6,0.9,1c0.5,0.4,0.9,0.8,1.4,1.1c1.9,1.8,3.5,3.7,4.9,5.4
						c0.4,0.3,0.9,0.5,1.3,0.6c-1.8-2-3.8-4-6.1-6.1C315,19.3,314.1,18.7,313.3,18.1z"/>
				</g>
				<g>
					<path class="st0" d="M322.9,36.8c-0.8-0.8-1.9-1.3-3-1.5c-1.3-0.1-2,0-2.6,0.6c-0.5,0.6-0.6,1.5-0.5,2.8s0.5,2.1,1.1,2.9
						s1.6,1.1,2.9,1.1s2.3-0.3,2.9-1c0.6-0.6,1-1.5,0.6-2.5C324.2,38.5,323.7,37.6,322.9,36.8z M322.5,41.2
						c-0.4,0.5-0.9,0.6-1.8,0.6s-1.4-0.3-1.9-0.9c-0.5-0.5-0.6-1.3-0.8-2.1c-0.1-0.9,0-1.5,0.3-2c0.4-0.5,0.8-0.6,1.6-0.5
						s1.4,0.4,1.9,1c0.5,0.5,0.8,1.1,0.9,2C322.9,40.2,322.9,40.7,322.5,41.2z"/>
				</g>
				<g>
					<path class="st0" d="M319.2,27.4c-0.9-0.9-2-1.6-3-2c-1.1-0.4-1.8-0.4-2,0.3c-0.4,0.5-0.3,1.4,0.3,2.6c0.4,1.3,0.9,2.1,1.8,3.2
						c0.8,0.9,1.9,1.4,3,1.6c1.1,0.3,2,0.1,2.4-0.4s0.4-1.3-0.1-2.4C321,29.1,320.2,28.4,319.2,27.4z M320.2,31.5
						c-0.3,0.4-0.6,0.5-1.4,0.4s-1.4-0.5-1.9-1.1s-0.9-1.4-1.3-2.3c-0.3-0.8-0.4-1.5-0.3-1.9s0.5-0.5,1.3-0.3
						c0.8,0.3,1.3,0.6,1.9,1.1c0.6,0.6,1,1.3,1.4,2.1C320.4,30.5,320.5,31.2,320.2,31.5z"/>
				</g>
			</g>
			<g>
				<g>
					<path class="st0" d="M261,68.5c-1-0.4-1.6-0.3-1.8,0.4c-0.1,0.5,0.3,1.4,1.1,2.8c0.9,1.3,1.8,2.3,2.8,3.4c1,1,2,1.9,2.8,2.3
						c0.9,0.5,1.3,0.4,1.3-0.3c-0.1-0.8-0.4-1.8-1-3c-0.6-1.4-1.3-2.5-2.3-3.5C263.1,69.5,262.1,68.9,261,68.5z M265.8,75.8
						c0,0.5-0.1,0.5-0.8,0.3c-0.6-0.3-1.1-0.8-1.8-1.5c-0.6-0.8-1.3-1.5-1.9-2.5s-0.9-1.6-0.9-2.1s0.4-0.5,1-0.3
						c0.6,0.3,1.3,0.6,1.9,1.4s1.1,1.5,1.6,2.5C265.5,74.5,265.8,75.3,265.8,75.8z"/>
				</g>
				<g>
					<path class="st0" d="M265.8,71.2c0.5,0.1,1.1,0.3,1.6,0.5c0.9,2.5,2,5.2,3.2,7.7c0.3,0.1,0.6,0.3,0.9,0.4
						c-1.3-3-2.4-6.1-3.4-9.1c-1-0.3-1.9-0.5-2.9-0.8C265.4,70.4,265.7,70.9,265.8,71.2z"/>
				</g>
				<g>
					<path class="st0" d="M265.9,45c-1.3,0-2.3,0.4-2.9,1.3c-0.6,0.8-0.9,1.9-0.8,3.4c0.1,1.4,0.5,2.5,1.3,3.4c0.6,1,1.8,1.4,3,1.5
						c1.3,0.1,2.1-0.3,2.8-1.1c0.6-0.8,0.8-2,0.8-3.5c-0.1-1.5-0.4-2.6-1.1-3.5C268.3,45.4,267.2,45,265.9,45z M268.1,52.5
						c-0.4,0.6-0.9,0.9-1.8,0.9s-1.4-0.4-1.9-1s-0.8-1.5-0.8-2.5c-0.1-1,0-1.9,0.4-2.5s1-0.9,1.8-0.9c0.9,0,1.4,0.3,1.9,1
						c0.5,0.6,0.6,1.5,0.6,2.6C268.6,51.1,268.4,51.8,268.1,52.5z"/>
				</g>
				<g>
					<path class="st0" d="M261.9,57.6c-1.3-0.1-2.1,0.1-2.5,0.9c-0.5,0.6-0.4,1.8,0,3c0.4,1.4,1,2.4,2,3.4c0.8,1,1.9,1.6,3,1.9
						s1.8,0,2.1-0.8c0.4-0.8,0.4-2,0-3.3c-0.4-1.5-0.8-2.5-1.6-3.5C264.3,58.3,263,57.8,261.9,57.6z M265.3,65.1
						c-0.3,0.6-0.6,0.8-1.4,0.6c-0.8-0.1-1.3-0.5-1.9-1.3c-0.6-0.8-1-1.5-1.3-2.5s-0.4-1.8-0.1-2.3c0.3-0.6,0.8-0.8,1.5-0.6
						s1.4,0.4,1.9,1.1c0.5,0.8,0.9,1.5,1.1,2.5C265.4,63.7,265.4,64.4,265.3,65.1z"/>
				</g>
				<g>
					<path class="st0" d="M267.1,59.8c0.6,0.1,1.3,0.1,1.9,0.1c0.4,2.6,0.9,5.3,1.5,7.9c0.5,0.1,0.9,0.1,1.4,0.1
						c-0.6-3.2-1.1-6.3-1.5-9.5c-1.1-0.1-2.3-0.1-3.4-0.3C266.9,58.9,267.1,59.3,267.1,59.8z"/>
				</g>
				<g>
					<path class="st0" d="M270.1,72.4c0.5,0.1,1,0.3,1.5,0.4c0.8,2.6,1.5,5.3,2.5,7.9c0.4,0.1,0.6,0.3,1,0.3c-1-3.2-1.9-6.3-2.6-9.5
						c-1-0.1-1.9-0.4-2.9-0.5C269.8,71.4,270,71.9,270.1,72.4z"/>
				</g>
				<g>
					<path class="st0" d="M258.9,54c0.5,0,1,0.1,1.5,0.1c-0.5-2.9-0.8-5.9-0.8-8.8c-1.1,0-2.4,0-3.5,0c0,0.4,0,0.9,0,1.3
						c0.6,0,1.4,0,2,0C258.2,48.9,258.5,51.5,258.9,54z"/>
				</g>
				<g>
					<path class="st0" d="M248.7,51.8c0.8,0.9,1.9,1.4,3.2,1.5s2.1-0.1,2.6-0.9c0.6-0.6,0.6-1.8,0.5-3c-0.1-1.4-0.5-2.4-1.3-3.2
						c-0.6-0.9-1.8-1.3-3-1.3c-1.3,0-2.3,0.4-2.9,1.1c-0.6,0.6-1,1.6-0.8,2.8C247.4,50.1,247.9,51,248.7,51.8z M249,46.8
						c0.4-0.5,1-0.8,1.8-0.8c0.9,0,1.4,0.3,1.9,0.9c0.5,0.6,0.6,1.4,0.8,2.3c0.1,1,0.1,1.6-0.3,2.3c-0.4,0.5-0.9,0.8-1.6,0.6
						c-0.9-0.1-1.4-0.4-2-1c-0.5-0.6-0.8-1.3-0.9-2.1C248.7,48.1,248.7,47.3,249,46.8z"/>
				</g>
				<g>
					<path class="st0" d="M253.1,65.4c-1-0.5-1.6-0.5-1.6-0.1s0.5,1.1,1.6,2.1c1.1,1.1,2.1,2,3.4,3.2c1.1,1,2.3,1.9,3,2.5
						c0.9,0.6,1.1,0.8,1,0.3s-0.8-1.4-1.5-2.5c-0.9-1.3-1.6-2.3-2.8-3.3C255.2,66.6,254.1,66,253.1,65.4z M259.1,72.3
						c0.1,0.4,0,0.4-0.6,0s-1.1-0.9-2-1.6c-0.8-0.8-1.5-1.4-2.3-2.3s-1.1-1.4-1.3-1.8s0.3-0.4,0.9,0c0.6,0.4,1.3,0.8,2,1.4
						c0.8,0.8,1.3,1.4,2,2.3C258.5,71.2,258.9,71.9,259.1,72.3z"/>
				</g>
				<g>
					<path class="st0" d="M251.9,61.8c-0.1,0.4-0.5,0.5-1.1,0.3c-0.8-0.3-1.4-0.6-2-1.3c-0.8-0.6-1.3-1.3-1.6-2.1
						c-0.5-0.9-0.6-1.4-0.5-1.9c0.1-0.4,0.6-0.5,1.4-0.4c0.8,0.1,1.4,0.5,2,1.1s1,1.4,1.4,2.3C251.8,60.7,252.1,61.3,251.9,61.8z"/>
				</g>
				<g>
					<path class="st0" d="M257.5,64.9c0.5,0.1,0.9,0.3,1.4,0.4c-1.3-2.8-2.1-5.5-2.9-8.3c-1.1-0.1-2.3-0.4-3.4-0.5
						c0.1,0.4,0.3,0.8,0.4,1.1c0.6,0.1,1.3,0.3,1.9,0.4C255.6,60.3,256.5,62.6,257.5,64.9z"/>
				</g>
				<g>
					<path class="st0" d="M278.5,46.5c-0.6-1-1.6-1.4-3-1.4c-1.3,0-2.3,0.4-2.9,1.4c-0.6,0.9-0.9,2-0.9,3.5c0.1,1.5,0.4,2.6,1.1,3.7
						c0.6,1,1.8,1.4,3,1.5c1.3,0,2.1-0.4,2.8-1.4c0.6-0.9,1-2.1,0.9-3.7C279.5,48.6,279.2,47.6,278.5,46.5z M277.5,52.8
						c-0.4,0.6-0.9,1-1.8,0.9c-0.9,0-1.4-0.4-1.9-1c-0.5-0.8-0.6-1.5-0.6-2.6s0.3-1.9,0.5-2.6c0.4-0.6,1-1,1.8-1
						c0.9,0,1.4,0.3,1.9,1c0.4,0.8,0.6,1.5,0.6,2.6S277.9,52.1,277.5,52.8z"/>
				</g>
				<g>
					<path class="st0" d="M281.2,60.5c0.6,0,1.3,0,1.9,0c0.1,2.8,0.3,5.5,0.4,8.3c0.5,0,0.9,0,1.4,0c-0.1-3.3-0.1-6.4-0.3-9.7
						c-1.1,0-2.3,0-3.3,0C281,59.7,281,60.2,281.2,60.5z"/>
				</g>
				<g>
					<path class="st0" d="M281.9,73.8c0.5,0,1,0,1.5,0c0.1,2.8,0.4,5.5,0.5,8.3c0.4,0,0.6,0,1,0c-0.1-3.3-0.3-6.4-0.4-9.7
						c-1,0-1.9,0-2.9,0C281.9,72.9,281.9,73.3,281.9,73.8z"/>
				</g>
				<g>
					<path class="st0" d="M280.8,45.4c0,0.5,0,0.9,0,1.4c0.6,0,1.3,0,2,0c0,2.8,0,5.5,0.1,8.3c0.5,0,1,0,1.5,0
						c0-3.3-0.1-6.4-0.1-9.7C283.1,45.4,281.9,45.4,280.8,45.4z"/>
				</g>
				<g>
					<path class="st0" d="M280.2,73.4c-0.5-1-1.5-1.5-2.5-1.5c-1-0.1-1.8,0.3-2.1,1.1c-0.4,0.8-0.4,2,0,3.5s0.9,2.6,1.6,3.7
						c0.6,1,1.5,1.6,2.3,1.8c0.9,0.1,1.4-0.3,1.8-1.1c0.4-0.9,0.5-2.1,0.3-3.7C281.2,75.5,280.8,74.4,280.2,73.4z M280.2,79.7
						c-0.1,0.6-0.5,0.9-1.1,0.9c-0.6-0.1-1-0.4-1.5-1.1c-0.5-0.8-0.8-1.6-1-2.6c-0.3-1.1-0.3-1.9-0.1-2.5c0.3-0.6,0.6-0.9,1.3-0.8
						c0.6,0.1,1.1,0.4,1.6,1.1c0.4,0.8,0.6,1.5,0.8,2.6C280.3,78.2,280.3,79.1,280.2,79.7z"/>
				</g>
				<g>
					<path class="st0" d="M279,60.3c-0.6-1-1.6-1.4-2.9-1.5c-1.3,0-2.1,0.4-2.6,1.3c-0.6,0.8-0.6,2-0.5,3.5c0.3,1.5,0.6,2.6,1.4,3.7
						c0.6,1,1.6,1.5,2.8,1.6c1.1,0.1,1.9-0.3,2.4-1.3s0.8-2.3,0.6-3.7C280,62.4,279.7,61.3,279,60.3z M278.5,66.3
						c-0.3,0.6-0.8,0.9-1.5,0.9c-0.8,0-1.3-0.4-1.8-1.1c-0.5-0.8-0.8-1.5-0.9-2.6c-0.1-1,0-1.9,0.3-2.5c0.4-0.6,0.9-0.9,1.6-0.9
						s1.4,0.4,1.8,0.9c0.5,0.8,0.6,1.5,0.8,2.6C278.8,64.8,278.8,65.7,278.5,66.3z"/>
				</g>
			</g>
			<g>
				<g>
					<path class="st0" d="M298.4,70.6c-1,0.3-1.9,0.8-2.6,1.8c-0.6,0.9-1.1,2.1-1.3,3.7c-0.3,1.5-0.3,2.5,0.1,3.4
						c0.3,0.9,0.9,1,1.8,0.8c0.9-0.3,1.6-1,2.4-2c0.6-1,1.4-2.4,1.8-3.7c0.4-1.4,0.5-2.4,0.1-3.2C300.3,70.5,299.5,70.4,298.4,70.6z
						 M298.1,77.4c-0.5,0.8-0.9,1.1-1.5,1.4s-0.9,0-1-0.5c-0.1-0.6-0.1-1.4,0.1-2.4c0.3-1.1,0.4-1.9,0.9-2.6c0.5-0.8,1-1.1,1.6-1.3
						c0.6-0.1,1,0,1.3,0.6c0.1,0.6,0.1,1.3-0.1,2.4C298.8,75.9,298.6,76.7,298.1,77.4z"/>
				</g>
				<g>
					<path class="st0" d="M302.1,71.1c0.5-0.1,1.1-0.4,1.6-0.5c-0.8,2.5-1.6,4.9-2.6,7.4c0.3-0.1,0.6-0.3,0.9-0.5
						c1.3-2.9,2.4-5.7,3.3-8.6c-1,0.3-1.9,0.6-2.9,0.9C302.4,70.2,302.2,70.6,302.1,71.1z"/>
				</g>
				<g>
					<path class="st0" d="M311.3,44.9c-1.3,0-2.3,0.4-2.9,1.3c-0.8,0.8-1,1.9-1.1,3.3s0.1,2.4,0.6,3.2c0.5,0.9,1.5,1.1,2.6,0.9
						c1.3-0.1,2.3-0.6,3-1.5c0.8-0.8,1.3-1.9,1.4-3.2s-0.1-2.1-0.8-3C313.7,45.3,312.6,44.9,311.3,44.9z M312.7,51.5
						c-0.5,0.6-1,0.9-1.9,1c-0.8,0.1-1.4-0.1-1.6-0.8c-0.4-0.6-0.4-1.3-0.4-2.3c0.1-1,0.3-1.8,0.6-2.4c0.3-0.6,1-0.9,1.9-0.9
						s1.4,0.3,1.8,0.8c0.4,0.6,0.5,1.3,0.4,2.3C313.4,50.1,313.2,50.8,312.7,51.5z"/>
				</g>
				<g>
					<path class="st0" d="M305.1,57.5c-1.1,0.1-2.1,0.6-2.9,1.6c-0.8,0.9-1.1,2.1-1.4,3.5s-0.1,2.5,0.3,3.3c0.4,0.9,1.1,1,2.3,0.8
						c1.2-0.2,2-0.9,2.9-1.9s1.4-2.1,1.6-3.4c0.4-1.4,0.3-2.3-0.3-3C307.3,57.6,306.3,57.4,305.1,57.5z M305.5,64.2
						c-0.5,0.8-1,1.1-1.8,1.3c-0.8,0.1-1.1,0-1.4-0.6s-0.3-1.4,0-2.4c0.1-1,0.4-1.9,0.9-2.5c0.5-0.8,1-1,1.9-1.1
						c0.8-0.1,1.3,0.1,1.5,0.6c0.3,0.5,0.3,1.3,0,2.3C306.3,62.7,306,63.4,305.5,64.2z"/>
				</g>
				<g>
					<path class="st0" d="M309.7,58.3c0.6-0.1,1.3-0.3,1.8-0.4c-0.5,2.3-1.3,4.7-2,6.9c0.4-0.1,0.9-0.3,1.3-0.4
						c1-2.6,1.8-5.3,2.4-8.1c-1.1,0.3-2.1,0.4-3.3,0.5C309.9,57.5,309.8,57.9,309.7,58.3z"/>
				</g>
				<g>
					<path class="st0" d="M306.4,69.7c0.5-0.3,1-0.4,1.5-0.6c-1,2.3-2,4.7-3.3,6.9c0.4-0.3,0.6-0.4,1-0.6c1.5-2.6,2.9-5.3,4-8.1
						c-1,0.4-1.9,0.8-2.9,1C306.6,68.9,306.5,69.2,306.4,69.7z"/>
				</g>
				<g>
					<path class="st0" d="M303.2,54.2c0.5,0,1-0.1,1.5-0.1c0.3-2.9,0.5-5.9,0.5-8.8c-1.1,0-2.3,0-3.5,0c0,0.4,0,0.9,0,1.3
						c0.6,0,1.3,0,1.9,0C303.6,49.2,303.5,51.7,303.2,54.2z"/>
				</g>
				<g>
					<path class="st0" d="M293.5,53.6c0.5,1,1.6,1.3,2.8,1.3c1.3-0.1,2.1-0.5,2.9-1.5c0.8-0.9,1.1-2,1.1-3.5s-0.3-2.5-0.9-3.4
						c-0.5-0.9-1.6-1.4-2.9-1.3c-1.3,0-2.3,0.4-2.9,1.4c-0.8,0.9-1.1,2.1-1,3.7C292.6,51.6,292.9,52.7,293.5,53.6z M294.8,47.4
						c0.4-0.6,1-1,1.8-1c0.9,0,1.4,0.3,1.8,0.9s0.5,1.5,0.5,2.5c0,1.1-0.3,1.9-0.6,2.5c-0.5,0.8-1,1-1.8,1c-0.9,0-1.4-0.3-1.8-0.9
						c-0.4-0.6-0.5-1.5-0.5-2.6C294.2,48.9,294.3,48.1,294.8,47.4z"/>
				</g>
				<g>
					<path class="st0" d="M290.5,71.8c-1,0.1-1.9,0.6-2.4,1.6c-0.6,0.9-0.8,2.1-0.8,3.7s0.3,2.6,0.6,3.5c0.4,0.9,1.1,1.3,1.9,1.1
						c0.9-0.1,1.5-0.6,2.1-1.8c0.6-1,1-2.4,1.1-3.7c0.3-1.5,0.1-2.5-0.4-3.4C292.4,72,291.5,71.6,290.5,71.8z M291.3,79.2
						c-0.4,0.8-0.8,1.1-1.4,1.1c-0.6,0.1-1-0.1-1.3-0.8c-0.3-0.6-0.4-1.5-0.3-2.6c0-1.1,0.1-2,0.5-2.6c0.4-0.8,0.9-1,1.5-1.1
						s1.1,0.1,1.4,0.8c0.3,0.6,0.3,1.5,0.1,2.5C291.9,77.7,291.6,78.4,291.3,79.2z"/>
				</g>
				<g>
					<path class="st0" d="M291,58.8c-1.3,0-2.1,0.5-2.8,1.5c-0.6,0.9-0.9,2.1-0.9,3.7c0,1.6,0.3,2.6,0.9,3.7c0.5,1,1.4,1.3,2.5,1.3
						c1.1-0.1,1.9-0.6,2.6-1.6c0.6-1,1-2.3,1.1-3.7c0.1-1.5-0.1-2.5-0.6-3.5C293.3,59,292.3,58.6,291,58.8z M292.4,66.2
						c-0.4,0.8-0.9,1-1.6,1.1c-0.8,0-1.3-0.3-1.5-0.9c-0.4-0.6-0.5-1.5-0.5-2.6s0.1-2,0.6-2.6c0.4-0.8,0.9-1,1.8-1
						c0.8,0,1.3,0.3,1.6,0.9c0.4,0.6,0.4,1.5,0.4,2.6C293,64.7,292.8,65.4,292.4,66.2z"/>
				</g>
				<g>
					<path class="st0" d="M288.9,55c0.5,0,1,0,1.5,0c0-3.2,0.1-6.4,0.1-9.6c-1.1,0-2.4,0-3.5,0c0,0.5,0,0.9,0,1.4c0.6,0,1.3,0,2,0
						C288.9,49.6,288.9,52.3,288.9,55z"/>
				</g>
				<g>
					<path class="st0" d="M296.8,67.7c0.5-0.1,0.9-0.1,1.4-0.3c0.5-3,0.9-6.2,1.1-9.2c-1.1,0.1-2.3,0.3-3.3,0.3c0,0.5,0,0.9-0.1,1.4
						c0.6,0,1.3-0.1,1.9-0.1C297.4,62.4,297.2,65.1,296.8,67.7z"/>
				</g>
				<g>
					<path class="st0" d="M323.7,45.8c-0.5-0.6-1.6-1-2.9-1s-2.3,0.4-2.9,1.1c-0.8,0.6-1,1.8-1.1,2.9c-0.1,1.3,0,2.1,0.5,2.8
						c0.4,0.8,1.4,0.9,2.6,0.6c1.3-0.1,2.3-0.6,3-1.5c0.8-0.8,1.4-1.6,1.4-2.6C324.5,47.2,324.3,46.4,323.7,45.8z M321.9,50.5
						c-0.5,0.5-1.1,0.9-1.9,1s-1.3,0-1.6-0.5c-0.3-0.5-0.4-1.1-0.3-2s0.4-1.5,0.8-2.1c0.5-0.5,1-0.8,1.9-0.9c0.9,0,1.4,0.1,1.8,0.6
						s0.5,1.1,0.4,1.9C322.6,49.2,322.4,49.8,321.9,50.5z"/>
				</g>
				<g>
					<path class="st0" d="M323.9,54.2c-0.1,0.4-0.3,0.6-0.4,1c0.6-0.1,1.3-0.4,1.8-0.5c-0.9,1.8-1.9,3.7-3.2,5.4
						c0.4-0.3,0.9-0.4,1.3-0.6"/>
				</g>
				<g>
					<path class="st0" d="M318.1,64.2c0.5-0.3,1-0.6,1.5-0.9c-1.5,1.8-3.3,3.7-5.2,5.4c0.4-0.3,0.6-0.6,1-0.9c2.3-2,4.4-4,6.1-6.1
						c-0.9,0.5-1.9,1-2.9,1.5C318.6,63.6,318.4,63.9,318.1,64.2z"/>
				</g>
				<g>
					<path class="st0" d="M316.5,64.9c0-0.5-0.8-0.4-1.8,0.1s-2,1.1-2.9,2.1c-0.9,0.9-1.6,2-2.3,3.3c-0.6,1.3-1,2-1,2.5
						c-0.1,0.5,0.4,0.4,1.3-0.3c0.9-0.6,1.8-1.5,2.8-2.5c1.1-1,2.1-2.1,2.8-3C316.2,66.1,316.6,65.4,316.5,64.9z M312.3,70.1
						c-0.8,0.8-1.3,1.3-1.9,1.6c-0.6,0.4-0.8,0.5-0.8,0.1c0.1-0.4,0.4-1,0.9-1.9s1-1.6,1.6-2.3c0.6-0.8,1.3-1.1,1.9-1.5s1-0.4,1,0
						s-0.4,0.9-0.9,1.6C313.6,68.7,313.1,69.4,312.3,70.1z"/>
				</g>
				<g>
					<path class="st0" d="M321.5,55.6c-0.3-0.6-1.3-0.6-2.4-0.4c-1.1,0.3-2.1,0.8-3,1.6s-1.4,1.9-1.8,3.2s-0.5,2-0.3,2.6
						c0.1,0.6,1,0.6,2,0.1c1-0.4,2-1,3-2c1-0.9,1.9-1.9,2.1-2.9C321.8,56.9,321.9,56.1,321.5,55.6z M318.5,60.3
						c-0.6,0.6-1.3,1-1.9,1.3c-0.8,0.3-1.1,0.3-1.3-0.3c-0.1-0.4,0-1,0.3-1.9c0.3-0.8,0.8-1.6,1.1-2.1c0.5-0.6,1.1-1,1.9-1.1
						s1.3-0.1,1.5,0.3c0.3,0.4,0.1,1-0.3,1.8C319.6,59,319.1,59.7,318.5,60.3z"/>
				</g>
			</g>
		</g>
		<g>
			<g>
				<g>
					<g>
						<path class="st1" d="M134.1,2.7C111.5,2.7,93,21,93,43.4v37.3c0,1.9,1.5,3.9,3.9,3.9c2.3,0,4.3-1.9,4.3-3.9V43.4
							c0-18.3,14.7-33,33-33s33,14.7,33,33v37.3c0,1.9,1.5,3.9,3.9,3.9c2.3,0,3.9-1.9,4.3-3.9V43.4C175.3,21,156.6,2.7,134.1,2.7z"
							/>
					</g>
					<g>
						<path class="st1" d="M185.4,2.3c-2.3,0-4.3,1.9-4.3,3.9v37.3v37.3c0,1.9,1.5,3.9,3.9,3.9c2.3,0,3.9-1.5,4.3-3.9V43.4V6.2
							C189.2,4.2,187.6,2.3,185.4,2.3z"/>
					</g>
					<g>
						<path class="st1" d="M246.6,76.4c-16.3-1.9-29.1-15.9-29.5-32.6v-19h14.4c1.9,0,3.9-1.5,3.9-3.9c0-1.9-1.9-3.9-3.9-3.9h-14.4
							V6.2c0-1.9-1.5-3.9-3.9-3.9c-1.9,0-3.9,1.9-4.3,3.9V17h-10.8c-1.9,0-3.9,1.5-3.9,3.9c0,1.9,1.5,3.9,3.9,3.9h10.8v20.4h0.1
							c0.8,20.3,16.3,37.1,36.4,39.3c2.8,0,4.7-1.9,4.7-4.3C250.2,78.3,248.5,76.4,246.6,76.4z"/>
					</g>
					<g>
						<path class="st1" d="M337.7,94.7l-22.6-22.9c7.1-7.3,11.5-17.4,11.5-28.5c0-22.9-18.7-41.1-41.1-41.1s-41.1,18.3-41.1,41.1
							c0,22.9,18.3,41.1,41.1,41.1c8.7,0,16.6-2.6,23.3-7.3l23.1,23.4c1.5,1.5,4.3,1.5,5.8,0C339.2,99,339.2,96.8,337.7,94.7z
							 M252.4,43.4c0-18.3,14.7-33,33-33s33,14.7,33,33s-14.7,33-33,33C267.2,76.4,252.4,61.7,252.4,43.4z"/>
					</g>
					<g>
						<path class="st1" d="M75.5,71.6c2.1-2.2,3.9-4.7,5.5-7.3c0.9-1.4,1.6-2.9,2.3-4.5c2.2-5,3.5-10.6,3.5-16.4
							c0-5.2-1-10.1-2.7-14.6c-0.6-1.6-1.3-3.1-2-4.5c-6.9-13.1-20.7-22-36.4-22c-15.8,0-29.7,9-36.6,22.3c-0.8,1.5-1.5,3.1-2.1,4.8
							c-1.6,4.4-2.5,9.1-2.5,14.1c0,5.5,1.1,10.8,3,15.6c0.7,1.6,1.4,3.2,2.3,4.8c7,12.5,20.4,20.8,35.8,20.8
							c8.7,0,16.9-2.8,23.6-7.4l7.4,7.4c1.5,1.5,4.3,1.5,5.8,0s1.5-3.9,0-5.8L75.5,71.6z M45.7,76.4c-10.1,0-19.1-4.5-25.1-11.5
							c-4.9-5.8-7.9-13.2-7.9-21.5c0-6.4,1.8-12.4,4.9-17.4c5.8-9.4,16.2-15.6,28.1-15.6s22.2,6.2,28,15.5c3.1,5,4.9,11,4.9,17.4
							c0,8.2-3,15.7-7.9,21.5C64.7,72,55.8,76.4,45.7,76.4z"/>
					</g>
				</g>
			</g>
		</g>
	</g>
	<path class="st2" d="M12.7,43.4c0,8.2,3,15.7,7.9,21.5c-1.4-0.6-2.7-1.2-4-1.8l-4-2.1L10,63.6l-0.1,0.1c-0.9-1.5-1.6-3.1-2.3-4.8
		l2.8-2.8V32.6L7,29.3c0.6-1.6,1.3-3.2,2.1-4.8c0.2,0.1,0.5,0.3,0.7,0.5l3.3,3.3h0.1l0.6-0.3c1.3-0.7,2.5-1.4,3.8-2
		C14.5,31,12.7,37,12.7,43.4z"/>
	<path class="st2" d="M81.1,57.7l2.2,2.2c-0.7,1.5-1.4,3-2.3,4.5c-0.3-0.1-0.6-0.3-0.8-0.5l-2.3-2.3L74.8,63c-1.3,0.7-2.7,1.3-4,1.9
		c4.9-5.8,7.9-13.3,7.9-21.5c0-6.4-1.8-12.4-4.9-17.4c1.4,0.7,2.7,1.4,4,2.1l3.1-3.1c0.3-0.3,0.7-0.5,1.2-0.7c0.8,1.4,1.5,3,2,4.5
		l-3,3V57.7z"/>
	<g>
		<path class="st3" d="M77.9,60.3l-3.6,1.8c-18,9.1-39.3,9.1-57.3,0l-3.6-1.8c-1.4-0.7-2.2-1-2.2-2.2V31.5c0-1.2,1-2.2,2.2-2.2
			l0.8-0.5c19.8-11.3,44-11.1,63.6,0.5l0,0c1.2,0,2.2,1,2.2,2.2v26.6C80.1,59.3,79.1,60.3,77.9,60.3z"/>
		<g>
			<path class="st4" d="M20.3,36.9l0.7-0.1c15.6-3.2,31.8-3.3,47.4-0.3L71,37"/>
			<path class="st4" d="M71.1,52.6l-0.7,0.1C54.8,55.9,38.6,56,23,53l-2.6-0.5"/>
			<line class="st4" x1="20.3" y1="45.3" x2="71.1" y2="45.3"/>
		</g>
		<line class="st5" x1="12.9" y1="31.7" x2="8" y2="26.8"/>
		<line class="st5" x1="8.2" y1="61.8" x2="13.5" y2="56.5"/>
		<line class="st5" x1="82" y1="62" x2="77.7" y2="57.8"/>
		<line class="st5" x1="76.7" y1="32.7" x2="82.7" y2="26.7"/>
	</g>
</g>
<g>
	<path class="st6" d="M14.2,119.4H8l-1.2,3.4H4l5.6-15.4h3l5.6,15.4h-2.8L14.2,119.4z M13.2,116.9l-2.2-6l-2.2,6H13.2z"/>
	<path class="st6" d="M32.2,115.1c0,4.3-3,7.7-7.4,7.7h-5.3v-15.4h5.3C29.2,107.4,32.2,110.8,32.2,115.1z M29.6,115.1
		c0-3.3-2.1-5.2-4.8-5.2h-2.6v10.4h2.6C27.5,120.3,29.6,118.4,29.6,115.1z"/>
	<path class="st6" d="M45.9,107.4l-5.2,15.4h-3.1l-5.2-15.4h2.8l4,12.1l4-12.1H45.9z"/>
	<path class="st6" d="M54,119.4h-6.2l-1.2,3.4h-2.8l5.6-15.4h3l5.6,15.4h-2.8L54,119.4z M53.1,116.9l-2.2-6l-2.2,6H53.1z"/>
	<path class="st6" d="M72.6,107.4v15.4h-2.7l-7.8-10.9v10.9h-2.6v-15.4h2.7l7.8,10.9v-10.9H72.6z"/>
	<path class="st6" d="M82.6,109.7c-2.9,0-5.4,2.2-5.4,5.4c0,3.2,2.5,5.4,5.4,5.4c2.2,0,3.6-1.1,4.2-1.7v2.7
		c-0.7,0.6-2.2,1.5-4.5,1.5c-4.3,0-7.7-3.5-7.7-7.9c0-4.5,3.4-7.9,7.7-7.9c2.3,0,3.8,0.9,4.5,1.5v2.7
		C86.2,110.8,84.8,109.7,82.6,109.7z"/>
	<path class="st6" d="M91.5,109.9v3.8h4.7v2.5h-4.7v4.1h6v2.5h-8.6v-15.4h8.6v2.5H91.5z"/>
	<path class="st6" d="M112.2,115.1c0,4.3-3,7.7-7.4,7.7h-5.3v-15.4h5.3C109.2,107.4,112.2,110.8,112.2,115.1z M109.5,115.1
		c0-3.3-2.1-5.2-4.8-5.2h-2.6v10.4h2.6C107.5,120.3,109.5,118.4,109.5,115.1z"/>
	<path class="st6" d="M130,109.9h-3.6v12.9h-2.7v-12.9h-3.6v-2.5h10v2.5H130z"/>
	<path class="st6" d="M130.5,115.1c0-4.4,3.5-7.9,7.8-7.9c4.4,0,7.9,3.5,7.9,7.9s-3.5,7.9-7.9,7.9C134,123,130.5,119.5,130.5,115.1z
		 M143.6,115.1c0-3-2.2-5.4-5.2-5.4s-5.2,2.5-5.2,5.4s2.2,5.4,5.2,5.4C141.4,120.5,143.6,118,143.6,115.1z"/>
	<path class="st6" d="M147.7,115.1c0-4.4,3.5-7.9,7.8-7.9c4.4,0,7.9,3.5,7.9,7.9s-3.5,7.9-7.9,7.9
		C151.2,123,147.7,119.5,147.7,115.1z M160.7,115.1c0-3-2.2-5.4-5.2-5.4s-5.2,2.5-5.2,5.4s2.2,5.4,5.2,5.4
		C158.6,120.5,160.7,118,160.7,115.1z"/>
	<path class="st6" d="M174.8,120.3v2.5h-9v-15.4h2.7v12.9H174.8z"/>
	<path class="st6" d="M178.6,118.1c0.1,1.6,1.2,2.4,2.5,2.4c1.4,0,2.2-0.7,2.2-1.6c0-1.2-1.2-1.8-2.9-2.8c-3.1-1.8-4.2-2.9-4.2-4.9
		c0-2.3,2-4,4.6-4c2.8,0,4.6,2.1,4.7,4.7h-2.7c-0.1-1.4-0.9-2.2-2-2.2c-1,0-1.9,0.6-1.9,1.5c0,1.2,0.9,1.6,2.5,2.5
		c2.9,1.6,4.6,2.9,4.6,5.3c0,2.6-2.2,4.1-4.9,4.1c-3.2,0-5.1-2.3-5.2-4.9L178.6,118.1L178.6,118.1z"/>
	<path class="st6" d="M196.9,109.9v3.9h5.1v2.5h-5.1v6.5h-2.7v-15.4h8.6v2.5H196.9z"/>
	<path class="st6" d="M203.7,115.1c0-4.4,3.5-7.9,7.8-7.9c4.4,0,7.9,3.5,7.9,7.9s-3.5,7.9-7.9,7.9
		C207.2,123,203.7,119.5,203.7,115.1z M216.7,115.1c0-3-2.2-5.4-5.2-5.4s-5.2,2.5-5.2,5.4s2.2,5.4,5.2,5.4
		C214.6,120.5,216.7,118,216.7,115.1z"/>
	<path class="st6" d="M226.8,118h-2.7v4.8h-2.7v-15.4h5.8c2.8,0,5.4,2,5.4,5.3c0,2.3-1.3,4-3.1,4.8l3.3,5.3h-3L226.8,118z
		 M224.1,115.4h3.1c1.5,0,2.7-1,2.7-2.8c0-1.7-1.2-2.8-2.7-2.8h-3.1V115.4z"/>
	<path class="st6" d="M248.5,109.9v3.9h5.1v2.5h-5.1v6.5h-2.7v-15.4h8.6v2.5H248.5z"/>
	<path class="st6" d="M256.4,107.4h2.7v15.4h-2.7V107.4z"/>
	<path class="st6" d="M276.4,114.3c0,5.5-3.2,8.8-7.8,8.8c-4.4,0-7.6-3.6-7.6-7.9s3.2-7.9,7.9-7.9c2.6,0,4.7,1.3,6.1,3.1l-2,1.6
		c-0.8-1.2-2.1-2.2-4-2.2c-3.1,0-5.3,2.4-5.3,5.4s2,5.4,5,5.4c2.6,0,4.3-1.5,4.9-3.7H268v-2.5h8.4V114.3z"/>
	<path class="st6" d="M290.5,107.4v15.4h-2.7v-6.4h-7.2v6.4h-2.7v-15.4h2.7v6.5h7.2v-6.5H290.5z"/>
	<path class="st6" d="M301.9,109.9h-3.6v12.9h-2.7v-12.9H292v-2.5h10L301.9,109.9L301.9,109.9z"/>
	<path class="st6" d="M303.7,107.4h2.7v15.4h-2.7V107.4z"/>
	<path class="st6" d="M321.7,107.4v15.4H319l-7.8-10.9v10.9h-2.7v-15.4h2.7l7.8,10.9v-10.9H321.7z"/>
	<path class="st6" d="M339,114.3c0,5.5-3.2,8.8-7.8,8.8c-4.4,0-7.6-3.6-7.6-7.9s3.2-7.9,7.9-7.9c2.6,0,4.7,1.3,6.1,3.1l-2,1.6
		c-0.8-1.2-2.1-2.2-4-2.2c-3.1,0-5.3,2.4-5.3,5.4s2,5.4,5,5.4c2.6,0,4.3-1.5,4.9-3.7h-5.6v-2.5h8.4V114.3z"/>
	<path class="st6" d="M24.2,142c0-4.4,3.5-7.9,7.8-7.9c4.4,0,7.9,3.5,7.9,7.9s-3.5,7.9-7.9,7.9C27.7,149.9,24.2,146.4,24.2,142z
		 M37.2,142c0-3-2.2-5.4-5.2-5.4s-5.2,2.5-5.2,5.4c0,3,2.2,5.4,5.2,5.4C35.1,147.4,37.2,145,37.2,142z"/>
	<path class="st6" d="M55.3,134.3v15.4h-2.7l-7.8-10.9v10.9h-2.7v-15.4h2.7l7.8,10.9v-10.9H55.3z"/>
	<path class="st6" d="M66.6,147.2v2.5h-9v-15.4h2.7v12.9H66.6z"/>
	<path class="st6" d="M68.5,134.3h2.7v15.4h-2.7V134.3z"/>
	<path class="st6" d="M86.4,134.3v15.4h-2.7l-7.8-10.9v10.9h-2.7v-15.4h2.7l7.8,10.9v-10.9H86.4z"/>
	<path class="st6" d="M91.1,136.8v3.8h4.7v2.5h-4.7v4.1h6v2.5h-8.6v-15.4h8.6v2.5L91.1,136.8L91.1,136.8z"/>
	<path class="st6" d="M105.2,134.3h2.7v15.4h-2.7V134.3z"/>
	<path class="st6" d="M119.2,147.2v2.5h-9v-15.4h2.7v12.9H119.2z"/>
	<path class="st6" d="M130.2,147.2v2.5h-9v-15.4h2.7v12.9H130.2z"/>
	<path class="st6" d="M134.6,136.8v3.8h4.7v2.5h-4.7v4.1h6v2.5H132v-15.4h8.6v2.5L134.6,136.8L134.6,136.8z"/>
	<path class="st6" d="M157.3,141.2c0,5.5-3.2,8.8-7.8,8.8c-4.4,0-7.6-3.6-7.6-7.9s3.2-7.9,7.9-7.9c2.6,0,4.7,1.3,6.1,3.1l-2,1.6
		c-0.8-1.2-2.1-2.2-4-2.2c-3.1,0-5.3,2.4-5.3,5.4s2,5.4,4.9,5.4c2.6,0,4.3-1.5,4.9-3.7h-5.6v-2.5h8.5V141.2z"/>
	<path class="st6" d="M167.6,146.3h-6.1l-1.2,3.4h-2.8l5.6-15.4h3l5.6,15.4h-2.8L167.6,146.3z M166.7,143.8l-2.2-6l-2.2,6H166.7z"/>
	<path class="st6" d="M182.3,147.2v2.5h-9v-15.4h2.7v12.9H182.3z"/>
	<path class="st6" d="M200.5,136.8h-3.6v12.9h-2.7v-12.9h-3.7v-2.5h10V136.8z"/>
	<path class="st6" d="M207.5,144.9h-2.7v4.8h-2.7v-15.4h5.8c2.8,0,5.4,2,5.4,5.3c0,2.3-1.3,4-3.1,4.8l3.3,5.3h-3L207.5,144.9z
		 M204.8,142.4h3.1c1.5,0,2.7-1,2.7-2.8c0-1.7-1.2-2.8-2.7-2.8h-3.1V142.4z"/>
	<path class="st6" d="M224.7,146.3h-6.2l-1.2,3.4h-2.8l5.6-15.4h3l5.6,15.4h-2.8L224.7,146.3z M223.7,143.8l-2.2-6l-2.2,6H223.7z"/>
	<path class="st6" d="M232.6,136.8v3.9h5.1v2.5h-5.1v6.5h-2.7v-15.4h8.6v2.5H232.6z"/>
	<path class="st6" d="M242.9,136.8v3.9h5.1v2.5h-5.1v6.5h-2.7v-15.4h8.6v2.5H242.9z"/>
	<path class="st6" d="M250.7,134.3h2.7v15.4h-2.7V134.3z"/>
	<path class="st6" d="M263.4,136.6c-2.9,0-5.4,2.2-5.4,5.4s2.5,5.4,5.4,5.4c2.2,0,3.6-1.1,4.2-1.7v2.7c-0.7,0.6-2.2,1.5-4.5,1.5
		c-4.3,0-7.7-3.5-7.7-7.9c0-4.5,3.4-7.9,7.7-7.9c2.3,0,3.8,0.9,4.5,1.5v2.7C267,137.7,265.6,136.6,263.4,136.6z"/>
	<path class="st6" d="M275.8,141.3l6.1,8.4h-3.2l-4.7-6.4l-1.6,1.8v4.6h-2.7v-15.4h2.7v6.9l6-6.9h3.5L275.8,141.3z"/>
	<path class="st6" d="M283.7,134.3h2.7v15.4h-2.7V134.3z"/>
	<path class="st6" d="M301.6,134.3v15.4h-2.7l-7.8-10.9v10.9h-2.6v-15.4h2.7l7.8,10.9v-10.9H301.6z"/>
	<path class="st6" d="M319,141.2c0,5.5-3.2,8.8-7.8,8.8c-4.4,0-7.6-3.6-7.6-7.9s3.2-7.9,7.9-7.9c2.6,0,4.7,1.3,6.1,3.1l-2,1.6
		c-0.8-1.2-2.1-2.2-4-2.2c-3.1,0-5.3,2.4-5.3,5.4s2,5.4,5,5.4c2.6,0,4.3-1.5,4.9-3.7h-5.7v-2.5h8.5V141.2z"/>
</g>
</svg>
